<svg xmlns="http://www.w3.org/2000/svg" xmlns:xlink="http://www.w3.org/1999/xlink" width="1366" zoomAndPan="magnify" viewBox="0 0 1024.5 576" height="768" preserveAspectRatio="xMidYMid meet" version="1.0"><defs><clipPath id="410323f983"><path d="M 0 0.140625 L 1024 0.140625 L 1024 575.859375 L 0 575.859375 Z M 0 0.140625 " clip-rule="nonzero"/></clipPath><clipPath id="82ae7a0f2f"><path d="M 788 176 L 892 176 L 892 285 L 788 285 Z M 788 176 " clip-rule="nonzero"/></clipPath><clipPath id="68f2f41465"><path d="M 802.375 313.574219 L 757.152344 196.835938 L 875.285156 151.074219 L 920.507812 267.808594 Z M 802.375 313.574219 " clip-rule="nonzero"/></clipPath><clipPath id="2c5299166f"><path d="M 802.375 313.574219 L 757.152344 196.835938 L 875.285156 151.074219 L 920.507812 267.808594 Z M 802.375 313.574219 " clip-rule="nonzero"/></clipPath><clipPath id="0c78d28ce1"><path d="M 802.375 313.574219 L 757.152344 196.835938 L 875.285156 151.074219 L 920.507812 267.808594 Z M 802.375 313.574219 " clip-rule="nonzero"/></clipPath><clipPath id="3c718486cb"><path d="M 788 159 L 892 159 L 892 268 L 788 268 Z M 788 159 " clip-rule="nonzero"/></clipPath><clipPath id="78b0a507f5"><path d="M 802.375 296.8125 L 757.152344 180.078125 L 875.285156 134.316406 L 920.507812 251.050781 Z M 802.375 296.8125 " clip-rule="nonzero"/></clipPath><clipPath id="bc4c73d771"><path d="M 802.375 296.8125 L 757.152344 180.078125 L 875.285156 134.316406 L 920.507812 251.050781 Z M 802.375 296.8125 " clip-rule="nonzero"/></clipPath><clipPath id="bc48752d5e"><path d="M 802.375 296.8125 L 757.152344 180.078125 L 875.285156 134.316406 L 920.507812 251.050781 Z M 802.375 296.8125 " clip-rule="nonzero"/></clipPath><clipPath id="4c00ac2f46"><path d="M 134 78 L 269 78 L 269 224 L 134 224 Z M 134 78 " clip-rule="nonzero"/></clipPath><clipPath id="14a9f6a839"><path d="M 229.691406 25.664062 L 325.140625 173.730469 L 175.183594 270.398438 L 79.734375 122.332031 Z M 229.691406 25.664062 " clip-rule="nonzero"/></clipPath><clipPath id="a67a979265"><path d="M 229.691406 25.664062 L 325.140625 173.730469 L 175.183594 270.398438 L 79.734375 122.332031 Z M 229.691406 25.664062 " clip-rule="nonzero"/></clipPath><clipPath id="0516a3be53"><path d="M 229.691406 25.664062 L 325.140625 173.730469 L 175.183594 270.398438 L 79.734375 122.332031 Z M 229.691406 25.664062 " clip-rule="nonzero"/></clipPath><clipPath id="4f8aeb8e8f"><path d="M 145 89 L 280 89 L 280 235 L 145 235 Z M 145 89 " clip-rule="nonzero"/></clipPath><clipPath id="1f821ad069"><path d="M 240.769531 36.742188 L 336.214844 184.808594 L 186.261719 281.472656 L 90.8125 133.410156 Z M 240.769531 36.742188 " clip-rule="nonzero"/></clipPath><clipPath id="a156905617"><path d="M 240.769531 36.742188 L 336.214844 184.808594 L 186.261719 281.472656 L 90.8125 133.410156 Z M 240.769531 36.742188 " clip-rule="nonzero"/></clipPath><clipPath id="b7e37c9e0b"><path d="M 240.769531 36.742188 L 336.214844 184.808594 L 186.261719 281.472656 L 90.8125 133.410156 Z M 240.769531 36.742188 " clip-rule="nonzero"/></clipPath><clipPath id="08a14d3db9"><path d="M 125 392 L 260 392 L 260 539 L 125 539 Z M 125 392 " clip-rule="nonzero"/></clipPath><clipPath id="337906a451"><path d="M 221.007812 339.890625 L 316.453125 487.957031 L 166.5 584.625 L 71.050781 436.558594 Z M 221.007812 339.890625 " clip-rule="nonzero"/></clipPath><clipPath id="b45ace0950"><path d="M 221.007812 339.890625 L 316.453125 487.957031 L 166.5 584.625 L 71.050781 436.558594 Z M 221.007812 339.890625 " clip-rule="nonzero"/></clipPath><clipPath id="06470814b9"><path d="M 221.007812 339.890625 L 316.453125 487.957031 L 166.5 584.625 L 71.050781 436.558594 Z M 221.007812 339.890625 " clip-rule="nonzero"/></clipPath><clipPath id="9bdd4d39b5"><path d="M 143 410 L 278 410 L 278 557 L 143 557 Z M 143 410 " clip-rule="nonzero"/></clipPath><clipPath id="de28c81990"><path d="M 238.375 357.859375 L 333.824219 505.925781 L 183.867188 602.59375 L 88.417969 454.527344 Z M 238.375 357.859375 " clip-rule="nonzero"/></clipPath><clipPath id="dafc8e44aa"><path d="M 238.375 357.859375 L 333.824219 505.925781 L 183.867188 602.59375 L 88.417969 454.527344 Z M 238.375 357.859375 " clip-rule="nonzero"/></clipPath><clipPath id="1fca80cdf5"><path d="M 238.375 357.859375 L 333.824219 505.925781 L 183.867188 602.59375 L 88.417969 454.527344 Z M 238.375 357.859375 " clip-rule="nonzero"/></clipPath><clipPath id="47ca79ebf2"><path d="M 596 14 L 698 14 L 698 125 L 596 125 Z M 596 14 " clip-rule="nonzero"/></clipPath><clipPath id="da94956246"><path d="M 668.359375 -25.175781 L 740.65625 86.976562 L 627.242188 160.085938 L 554.945312 47.933594 Z M 668.359375 -25.175781 " clip-rule="nonzero"/></clipPath><clipPath id="0d4ecc9090"><path d="M 668.359375 -25.175781 L 740.65625 86.976562 L 627.242188 160.085938 L 554.945312 47.933594 Z M 668.359375 -25.175781 " clip-rule="nonzero"/></clipPath><clipPath id="037fe451e2"><path d="M 668.359375 -25.175781 L 740.65625 86.976562 L 627.242188 160.085938 L 554.945312 47.933594 Z M 668.359375 -25.175781 " clip-rule="nonzero"/></clipPath><clipPath id="ab0edb8322"><path d="M 604 23 L 707 23 L 707 134 L 604 134 Z M 604 23 " clip-rule="nonzero"/></clipPath><clipPath id="8178c51480"><path d="M 676.753906 -16.78125 L 749.050781 95.371094 L 635.636719 168.480469 L 563.339844 56.328125 Z M 676.753906 -16.78125 " clip-rule="nonzero"/></clipPath><clipPath id="250ea31225"><path d="M 676.753906 -16.78125 L 749.050781 95.371094 L 635.636719 168.480469 L 563.339844 56.328125 Z M 676.753906 -16.78125 " clip-rule="nonzero"/></clipPath><clipPath id="cce2da4996"><path d="M 676.753906 -16.78125 L 749.050781 95.371094 L 635.636719 168.480469 L 563.339844 56.328125 Z M 676.753906 -16.78125 " clip-rule="nonzero"/></clipPath><clipPath id="1293aaccfb"><path d="M 0 251 L 72 251 L 72 356 L 0 356 Z M 0 251 " clip-rule="nonzero"/></clipPath><clipPath id="bdba2f8f38"><path d="M -48.980469 247.304688 L 71.121094 235.371094 L 83.203125 356.964844 L -36.898438 368.894531 Z M -48.980469 247.304688 " clip-rule="nonzero"/></clipPath><clipPath id="5c621e3f30"><path d="M -33.3125 245.746094 L 71.121094 235.371094 L 83.203125 356.964844 L -21.234375 367.339844 Z M -33.3125 245.746094 " clip-rule="nonzero"/></clipPath><clipPath id="0f0114eab4"><path d="M -48.949219 247.300781 L 71.148438 235.367188 L 83.230469 356.960938 L -36.871094 368.894531 Z M -48.949219 247.300781 " clip-rule="nonzero"/></clipPath><clipPath id="aa86343677"><path d="M 0 248 L 82 248 L 82 353 L 0 353 Z M 0 248 " clip-rule="nonzero"/></clipPath><clipPath id="f13b9f649b"><path d="M -38.773438 244.015625 L 81.324219 232.082031 L 93.40625 353.675781 L -26.695312 365.605469 Z M -38.773438 244.015625 " clip-rule="nonzero"/></clipPath><clipPath id="2c8b6465fc"><path d="M -33.550781 243.496094 L 81.324219 232.082031 L 93.40625 353.675781 L -21.472656 365.085938 Z M -33.550781 243.496094 " clip-rule="nonzero"/></clipPath><clipPath id="3753af6aef"><path d="M -38.765625 244.011719 L 81.335938 232.082031 L 93.414062 353.671875 L -26.683594 365.605469 Z M -38.765625 244.011719 " clip-rule="nonzero"/></clipPath><clipPath id="573fa2b95c"><path d="M 12 12 L 93 12 L 93 104 L 12 104 Z M 12 12 " clip-rule="nonzero"/></clipPath><clipPath id="94e0b4ff0c"><path d="M 44.835938 -30.066406 L 138.199219 46.417969 L 60.761719 140.941406 L -32.597656 64.453125 Z M 44.835938 -30.066406 " clip-rule="nonzero"/></clipPath><clipPath id="0bbded9e86"><path d="M 44.835938 -30.066406 L 138.199219 46.417969 L 60.761719 140.941406 L -32.597656 64.453125 Z M 44.835938 -30.066406 " clip-rule="nonzero"/></clipPath><clipPath id="8663df03b7"><path d="M 44.835938 -30.066406 L 138.199219 46.417969 L 60.761719 140.941406 L -32.597656 64.453125 Z M 44.835938 -30.066406 " clip-rule="nonzero"/></clipPath><clipPath id="75b74e9d89"><path d="M 22 16 L 103 16 L 103 109 L 22 109 Z M 22 16 " clip-rule="nonzero"/></clipPath><clipPath id="c093c112a6"><path d="M 54.378906 -25.175781 L 147.738281 51.308594 L 70.304688 145.828125 L -23.058594 69.34375 Z M 54.378906 -25.175781 " clip-rule="nonzero"/></clipPath><clipPath id="7206c33e1c"><path d="M 54.378906 -25.175781 L 147.738281 51.308594 L 70.304688 145.828125 L -23.058594 69.34375 Z M 54.378906 -25.175781 " clip-rule="nonzero"/></clipPath><clipPath id="5d3895b846"><path d="M 54.378906 -25.175781 L 147.738281 51.308594 L 70.304688 145.828125 L -23.058594 69.34375 Z M 54.378906 -25.175781 " clip-rule="nonzero"/></clipPath><clipPath id="4a7b2df44c"><path d="M 903 314 L 1024 314 L 1024 452 L 903 452 Z M 903 314 " clip-rule="nonzero"/></clipPath><clipPath id="2ca933886f"><path d="M 985.339844 261.765625 L 1085.683594 397.332031 L 948.308594 499.019531 L 847.960938 363.449219 Z M 985.339844 261.765625 " clip-rule="nonzero"/></clipPath><clipPath id="105a6f06bc"><path d="M 985.339844 261.765625 L 1085.683594 397.332031 L 948.308594 499.019531 L 847.960938 363.449219 Z M 985.339844 261.765625 " clip-rule="nonzero"/></clipPath><clipPath id="62d3eaf3ab"><path d="M 985.339844 261.765625 L 1085.683594 397.332031 L 948.308594 499.019531 L 847.960938 363.449219 Z M 985.339844 261.765625 " clip-rule="nonzero"/></clipPath><clipPath id="72433f9892"><path d="M 915 324 L 1024 324 L 1024 462 L 915 462 Z M 915 324 " clip-rule="nonzero"/></clipPath><clipPath id="d152507432"><path d="M 996.621094 271.675781 L 1096.96875 407.246094 L 959.589844 508.929688 L 859.242188 373.359375 Z M 996.621094 271.675781 " clip-rule="nonzero"/></clipPath><clipPath id="f775bd2285"><path d="M 996.621094 271.675781 L 1096.96875 407.246094 L 959.589844 508.929688 L 859.242188 373.359375 Z M 996.621094 271.675781 " clip-rule="nonzero"/></clipPath><clipPath id="90c573a35e"><path d="M 996.621094 271.675781 L 1096.96875 407.246094 L 959.589844 508.929688 L 859.242188 373.359375 Z M 996.621094 271.675781 " clip-rule="nonzero"/></clipPath><clipPath id="cc6cd9d0db"><path d="M 849 20 L 924 20 L 924 103 L 849 103 Z M 849 20 " clip-rule="nonzero"/></clipPath><clipPath id="15b671d70d"><path d="M 897.453125 -11.277344 L 957.664062 70.066406 L 875.71875 130.722656 L 815.511719 49.378906 Z M 897.453125 -11.277344 " clip-rule="nonzero"/></clipPath><clipPath id="c5492432bf"><path d="M 897.453125 -11.277344 L 957.664062 70.066406 L 875.71875 130.722656 L 815.511719 49.378906 Z M 897.453125 -11.277344 " clip-rule="nonzero"/></clipPath><clipPath id="80b1654d41"><path d="M 897.453125 -11.277344 L 957.664062 70.066406 L 875.71875 130.722656 L 815.511719 49.378906 Z M 897.453125 -11.277344 " clip-rule="nonzero"/></clipPath><clipPath id="d4ab3a7df4"><path d="M 855 26 L 931 26 L 931 109 L 855 109 Z M 855 26 " clip-rule="nonzero"/></clipPath><clipPath id="29b7562240"><path d="M 904.203125 -5.347656 L 964.410156 75.996094 L 882.46875 136.648438 L 822.257812 55.308594 Z M 904.203125 -5.347656 " clip-rule="nonzero"/></clipPath><clipPath id="1e4499f62d"><path d="M 904.203125 -5.347656 L 964.410156 75.996094 L 882.46875 136.648438 L 822.257812 55.308594 Z M 904.203125 -5.347656 " clip-rule="nonzero"/></clipPath><clipPath id="11c7e6574b"><path d="M 904.203125 -5.347656 L 964.410156 75.996094 L 882.46875 136.648438 L 822.257812 55.308594 Z M 904.203125 -5.347656 " clip-rule="nonzero"/></clipPath><clipPath id="be31d6f28e"><path d="M 359 270 L 492 270 L 492 417 L 359 417 Z M 359 270 " clip-rule="nonzero"/></clipPath><clipPath id="dc6428f8f5"><path d="M 446.019531 213.625 L 553.058594 358.230469 L 406.640625 466.605469 L 299.605469 322 Z M 446.019531 213.625 " clip-rule="nonzero"/></clipPath><clipPath id="5c2c33c6d0"><path d="M 446.019531 213.625 L 553.058594 358.230469 L 406.640625 466.605469 L 299.605469 322 Z M 446.019531 213.625 " clip-rule="nonzero"/></clipPath><clipPath id="b8b80472c4"><path d="M 446.019531 213.625 L 553.058594 358.230469 L 406.640625 466.605469 L 299.605469 322 Z M 446.019531 213.625 " clip-rule="nonzero"/></clipPath><clipPath id="58e925f1b2"><path d="M 371 280 L 504 280 L 504 427 L 371 427 Z M 371 280 " clip-rule="nonzero"/></clipPath><clipPath id="954a414599"><path d="M 458.03125 224.175781 L 565.066406 368.78125 L 418.652344 477.15625 L 311.613281 332.550781 Z M 458.03125 224.175781 " clip-rule="nonzero"/></clipPath><clipPath id="b4bfb73421"><path d="M 458.03125 224.175781 L 565.066406 368.78125 L 418.652344 477.15625 L 311.613281 332.550781 Z M 458.03125 224.175781 " clip-rule="nonzero"/></clipPath><clipPath id="1060fec654"><path d="M 458.03125 224.175781 L 565.066406 368.78125 L 418.652344 477.15625 L 311.613281 332.550781 Z M 458.03125 224.175781 " clip-rule="nonzero"/></clipPath><clipPath id="93f4220815"><path d="M 628 261 L 736 261 L 736 373 L 628 373 Z M 628 261 " clip-rule="nonzero"/></clipPath><clipPath id="fc325c0b4b"><path d="M 632.617188 236.402344 L 758.867188 266.066406 L 728.859375 393.773438 L 602.609375 364.109375 Z M 632.617188 236.402344 " clip-rule="nonzero"/></clipPath><clipPath id="16e15b8c7b"><path d="M 632.617188 236.402344 L 758.867188 266.066406 L 728.859375 393.773438 L 602.609375 364.109375 Z M 632.617188 236.402344 " clip-rule="nonzero"/></clipPath><clipPath id="452f8f0946"><path d="M 632.617188 236.402344 L 758.867188 266.066406 L 728.859375 393.773438 L 602.609375 364.109375 Z M 632.617188 236.402344 " clip-rule="nonzero"/></clipPath><clipPath id="77fc92cea5"><path d="M 640 261 L 747 261 L 747 374 L 640 374 Z M 640 261 " clip-rule="nonzero"/></clipPath><clipPath id="d6d6b5c1e4"><path d="M 644.136719 236.609375 L 770.386719 266.273438 L 740.378906 393.980469 L 614.128906 364.316406 Z M 644.136719 236.609375 " clip-rule="nonzero"/></clipPath><clipPath id="9372d37361"><path d="M 644.136719 236.609375 L 770.386719 266.273438 L 740.378906 393.980469 L 614.128906 364.316406 Z M 644.136719 236.609375 " clip-rule="nonzero"/></clipPath><clipPath id="f6ab663701"><path d="M 644.136719 236.609375 L 770.386719 266.273438 L 740.378906 393.980469 L 614.128906 364.316406 Z M 644.136719 236.609375 " clip-rule="nonzero"/></clipPath></defs><g clip-path="url(#410323f983)"><path fill="#ffffff" d="M 0 0.140625 L 1024 0.140625 L 1024 575.859375 L 0 575.859375 Z M 0 0.140625 " fill-opacity="1" fill-rule="nonzero"/><path fill="#ff9090" d="M 0 0.140625 L 1024 0.140625 L 1024 575.859375 L 0 575.859375 Z M 0 0.140625 " fill-opacity="1" fill-rule="nonzero"/></g><path fill="#b80303" d="M 750.042969 447.050781 L 790.820312 411.328125 C 794.9375 407.722656 800.316406 405.894531 805.785156 406.25 C 811.25 406.605469 816.347656 409.113281 819.964844 413.222656 L 865.082031 464.535156 C 872.605469 473.089844 871.753906 486.113281 863.183594 493.625 L 822.40625 529.347656 C 813.835938 536.855469 800.785156 536.007812 793.261719 527.453125 L 748.144531 476.140625 C 740.617188 467.585938 741.46875 454.5625 750.042969 447.050781 Z M 750.042969 447.050781 " fill-opacity="0.45" fill-rule="nonzero"/><g clip-path="url(#82ae7a0f2f)"><g clip-path="url(#68f2f41465)"><g clip-path="url(#2c5299166f)"><g clip-path="url(#0c78d28ce1)"><path fill="#b80303" d="M 838.746094 282.203125 L 797.972656 260.925781 C 793.855469 258.773438 790.761719 255.082031 789.367188 250.652344 C 787.972656 246.222656 788.398438 241.421875 790.546875 237.304688 L 817.363281 185.898438 C 821.832031 177.324219 832.40625 174 840.980469 178.472656 L 881.757812 199.75 C 890.328125 204.222656 893.652344 214.796875 889.183594 223.371094 L 862.363281 274.777344 C 857.894531 283.351562 847.320312 286.671875 838.746094 282.203125 Z M 838.746094 282.203125 " fill-opacity="0.45" fill-rule="nonzero"/></g></g></g></g><g clip-path="url(#3c718486cb)"><g clip-path="url(#78b0a507f5)"><g clip-path="url(#bc4c73d771)"><g clip-path="url(#bc48752d5e)"><path fill="#b80303" d="M 838.746094 265.441406 L 797.972656 244.164062 C 793.855469 242.015625 790.761719 238.324219 789.367188 233.894531 C 787.972656 229.460938 788.398438 224.664062 790.546875 220.542969 L 817.363281 169.136719 C 821.832031 160.5625 832.40625 157.242188 840.980469 161.714844 L 881.757812 182.992188 C 890.328125 187.460938 893.652344 198.039062 889.183594 206.613281 L 862.363281 258.019531 C 857.894531 266.59375 847.320312 269.914062 838.746094 265.441406 Z M 838.746094 265.441406 " fill-opacity="0.45" fill-rule="nonzero"/></g></g></g></g><g clip-path="url(#4c00ac2f46)"><g clip-path="url(#14a9f6a839)"><g clip-path="url(#a67a979265)"><g clip-path="url(#0516a3be53)"><path fill="#b80303" d="M 188.417969 79.25 L 250.683594 96.988281 C 256.96875 98.78125 262.285156 102.992188 265.460938 108.703125 C 268.636719 114.414062 269.410156 121.148438 267.617188 127.4375 L 245.199219 205.929688 C 241.464844 219.015625 227.824219 226.601562 214.734375 222.875 L 152.464844 205.136719 C 139.375 201.410156 131.796875 187.773438 135.53125 174.683594 L 157.949219 96.195312 C 161.683594 83.109375 175.328125 75.523438 188.417969 79.25 Z M 188.417969 79.25 " fill-opacity="0.45" fill-rule="nonzero"/></g></g></g></g><g clip-path="url(#4f8aeb8e8f)"><g clip-path="url(#1f821ad069)"><g clip-path="url(#a156905617)"><g clip-path="url(#b7e37c9e0b)"><path fill="#b80303" d="M 199.496094 90.328125 L 261.761719 108.066406 C 268.046875 109.859375 273.363281 114.070312 276.539062 119.78125 C 279.714844 125.492188 280.488281 132.226562 278.695312 138.515625 L 256.277344 217.003906 C 252.542969 230.09375 238.898438 237.679688 225.808594 233.953125 L 163.542969 216.214844 C 150.453125 212.484375 142.875 198.851562 146.609375 185.761719 L 169.027344 107.273438 C 172.761719 94.183594 186.40625 86.601562 199.496094 90.328125 Z M 199.496094 90.328125 " fill-opacity="0.45" fill-rule="nonzero"/></g></g></g></g><g clip-path="url(#08a14d3db9)"><g clip-path="url(#337906a451)"><g clip-path="url(#b45ace0950)"><g clip-path="url(#06470814b9)"><path fill="#b80303" d="M 179.734375 393.476562 L 242 411.214844 C 248.285156 413.007812 253.601562 417.21875 256.777344 422.929688 C 259.953125 428.640625 260.726562 435.378906 258.933594 441.664062 L 236.515625 520.15625 C 232.78125 533.242188 219.136719 540.828125 206.046875 537.101562 L 143.78125 519.363281 C 130.691406 515.636719 123.113281 502 126.847656 488.914062 L 149.265625 410.421875 C 153 397.335938 166.644531 389.75 179.734375 393.476562 Z M 179.734375 393.476562 " fill-opacity="0.45" fill-rule="nonzero"/></g></g></g></g><g clip-path="url(#9bdd4d39b5)"><g clip-path="url(#de28c81990)"><g clip-path="url(#dafc8e44aa)"><g clip-path="url(#1fca80cdf5)"><path fill="#b80303" d="M 197.101562 411.445312 L 259.367188 429.183594 C 265.652344 430.976562 270.96875 435.1875 274.144531 440.898438 C 277.324219 446.609375 278.097656 453.347656 276.300781 459.632812 L 253.886719 538.125 C 250.148438 551.210938 236.507812 558.796875 223.417969 555.070312 L 161.152344 537.332031 C 148.058594 533.605469 140.480469 519.96875 144.21875 506.882812 L 166.632812 428.390625 C 170.367188 415.304688 184.011719 407.71875 197.101562 411.445312 Z M 197.101562 411.445312 " fill-opacity="0.45" fill-rule="nonzero"/></g></g></g></g><path fill="#b80303" d="M 750.042969 458.105469 L 790.820312 422.382812 C 794.9375 418.777344 800.316406 416.949219 805.785156 417.304688 C 811.25 417.660156 816.347656 420.167969 819.964844 424.277344 L 865.082031 475.589844 C 872.605469 484.144531 871.753906 497.167969 863.183594 504.679688 L 822.40625 540.402344 C 813.835938 547.914062 800.785156 547.0625 793.261719 538.507812 L 748.144531 487.195312 C 740.617188 478.640625 741.46875 465.617188 750.042969 458.105469 Z M 750.042969 458.105469 " fill-opacity="0.45" fill-rule="nonzero"/><g clip-path="url(#47ca79ebf2)"><g clip-path="url(#da94956246)"><g clip-path="url(#0d4ecc9090)"><g clip-path="url(#037fe451e2)"><path fill="#b80303" d="M 637.15625 15.371094 L 684.277344 28.835938 C 689.035156 30.195312 693.058594 33.386719 695.464844 37.710938 C 697.871094 42.039062 698.460938 47.136719 697.105469 51.898438 L 680.1875 111.3125 C 677.367188 121.21875 667.050781 126.953125 657.140625 124.125 L 610.019531 110.664062 C 600.113281 107.835938 594.371094 97.507812 597.191406 87.601562 L 614.113281 28.1875 C 616.929688 18.277344 627.25 12.542969 637.15625 15.371094 Z M 637.15625 15.371094 " fill-opacity="0.45" fill-rule="nonzero"/></g></g></g></g><g clip-path="url(#ab0edb8322)"><g clip-path="url(#8178c51480)"><g clip-path="url(#250ea31225)"><g clip-path="url(#cce2da4996)"><path fill="#b80303" d="M 645.550781 23.765625 L 692.671875 37.230469 C 697.429688 38.589844 701.453125 41.78125 703.859375 46.105469 C 706.269531 50.433594 706.855469 55.53125 705.503906 60.292969 L 688.582031 119.707031 C 685.761719 129.613281 675.445312 135.351562 665.539062 132.519531 L 618.414062 119.058594 C 608.507812 116.230469 602.765625 105.902344 605.585938 95.996094 L 622.507812 36.582031 C 625.324219 26.671875 635.644531 20.9375 645.550781 23.765625 Z M 645.550781 23.765625 " fill-opacity="0.45" fill-rule="nonzero"/></g></g></g></g><g clip-path="url(#1293aaccfb)"><g clip-path="url(#bdba2f8f38)"><g clip-path="url(#5c621e3f30)"><g clip-path="url(#0f0114eab4)"><path fill="#b80303" d="M -29.175781 289.195312 L 1.097656 256.78125 C 4.152344 253.511719 8.382812 251.585938 12.855469 251.433594 C 17.328125 251.28125 21.679688 252.914062 24.953125 255.972656 L 65.800781 294.148438 C 72.613281 300.515625 72.972656 311.199219 66.613281 318.011719 L 36.339844 350.425781 C 29.980469 357.238281 19.296875 357.601562 12.484375 351.234375 L -28.363281 313.058594 C -35.175781 306.691406 -35.535156 296.007812 -29.175781 289.195312 Z M -29.175781 289.195312 " fill-opacity="0.45" fill-rule="nonzero"/></g></g></g></g><g clip-path="url(#aa86343677)"><g clip-path="url(#f13b9f649b)"><g clip-path="url(#2c8b6465fc)"><g clip-path="url(#3753af6aef)"><path fill="#b80303" d="M -18.988281 285.90625 L 11.28125 253.496094 C 14.339844 250.222656 18.566406 248.300781 23.039062 248.144531 C 27.515625 247.992188 31.863281 249.625 35.136719 252.683594 L 75.984375 290.859375 C 82.796875 297.226562 83.160156 307.910156 76.796875 314.726562 L 46.527344 347.136719 C 40.164062 353.953125 29.484375 354.3125 22.671875 347.949219 L -18.175781 309.769531 C -24.988281 303.40625 -25.351562 292.71875 -18.988281 285.90625 Z M -18.988281 285.90625 " fill-opacity="0.45" fill-rule="nonzero"/></g></g></g></g><g clip-path="url(#573fa2b95c)"><g clip-path="url(#94e0b4ff0c)"><g clip-path="url(#0bbded9e86)"><g clip-path="url(#8663df03b7)"><path fill="#b80303" d="M 29.199219 13.539062 L 73.519531 12.027344 C 77.996094 11.875 82.34375 13.503906 85.617188 16.558594 C 88.890625 19.613281 90.808594 23.84375 90.960938 28.320312 L 92.851562 84.199219 C 93.167969 93.519531 85.867188 101.328125 76.550781 101.648438 L 32.226562 103.164062 C 22.910156 103.484375 15.101562 96.1875 14.785156 86.867188 L 12.898438 30.988281 C 12.582031 21.671875 19.878906 13.859375 29.199219 13.539062 Z M 29.199219 13.539062 " fill-opacity="0.45" fill-rule="nonzero"/></g></g></g></g><g clip-path="url(#75b74e9d89)"><g clip-path="url(#c093c112a6)"><g clip-path="url(#7206c33e1c)"><g clip-path="url(#5d3895b846)"><path fill="#b80303" d="M 38.738281 18.429688 L 83.0625 16.914062 C 87.535156 16.765625 91.886719 18.394531 95.160156 21.449219 C 98.429688 24.503906 100.351562 28.734375 100.503906 33.210938 L 102.390625 89.089844 C 102.707031 98.40625 95.410156 106.21875 86.09375 106.539062 L 41.769531 108.050781 C 32.453125 108.371094 24.644531 101.074219 24.328125 91.757812 L 22.441406 35.878906 C 22.121094 26.558594 29.421875 18.75 38.738281 18.429688 Z M 38.738281 18.429688 " fill-opacity="0.45" fill-rule="nonzero"/></g></g></g></g><g clip-path="url(#4a7b2df44c)"><g clip-path="url(#2ca933886f)"><g clip-path="url(#105a6f06bc)"><g clip-path="url(#62d3eaf3ab)"><path fill="#b80303" d="M 949.1875 315.53125 L 1009.792969 328.621094 C 1015.910156 329.945312 1021.25 333.636719 1024.640625 338.898438 C 1028.027344 344.160156 1029.179688 350.546875 1027.855469 356.667969 L 1011.261719 433.066406 C 1008.496094 445.804688 995.925781 453.898438 983.183594 451.152344 L 922.578125 438.0625 C 909.835938 435.3125 901.753906 422.753906 904.515625 410.015625 L 921.109375 333.617188 C 923.875 320.878906 936.445312 312.785156 949.1875 315.53125 Z M 949.1875 315.53125 " fill-opacity="0.45" fill-rule="nonzero"/></g></g></g></g><g clip-path="url(#72433f9892)"><g clip-path="url(#d152507432)"><g clip-path="url(#f775bd2285)"><g clip-path="url(#90c573a35e)"><path fill="#b80303" d="M 960.46875 325.445312 L 1021.074219 338.53125 C 1027.191406 339.855469 1032.53125 343.550781 1035.921875 348.808594 C 1039.308594 354.070312 1040.460938 360.457031 1039.136719 366.578125 L 1022.542969 442.976562 C 1019.78125 455.714844 1007.207031 463.8125 994.464844 461.0625 L 933.859375 447.972656 C 921.117188 445.222656 913.035156 432.664062 915.800781 419.925781 L 932.390625 343.53125 C 935.15625 330.789062 947.726562 322.695312 960.46875 325.445312 Z M 960.46875 325.445312 " fill-opacity="0.45" fill-rule="nonzero"/></g></g></g></g><g clip-path="url(#cc6cd9d0db)"><g clip-path="url(#15b671d70d)"><g clip-path="url(#c5492432bf)"><g clip-path="url(#80b1654d41)"><path fill="#b80303" d="M 875.9375 20.859375 L 912.183594 28.796875 C 915.84375 29.601562 919.039062 31.820312 921.074219 34.976562 C 923.109375 38.132812 923.808594 41.957031 923.027344 45.621094 L 913.238281 91.335938 C 911.605469 98.960938 904.105469 103.785156 896.484375 102.117188 L 860.238281 94.179688 C 852.617188 92.511719 847.765625 84.976562 849.394531 77.355469 L 859.183594 31.640625 C 860.816406 24.015625 868.316406 19.191406 875.9375 20.859375 Z M 875.9375 20.859375 " fill-opacity="0.45" fill-rule="nonzero"/></g></g></g></g><g clip-path="url(#d4ab3a7df4)"><g clip-path="url(#29b7562240)"><g clip-path="url(#1e4499f62d)"><g clip-path="url(#11c7e6574b)"><path fill="#b80303" d="M 882.683594 26.785156 L 918.933594 34.726562 C 922.589844 35.527344 925.789062 37.75 927.824219 40.90625 C 929.855469 44.058594 930.558594 47.886719 929.773438 51.550781 L 919.984375 97.265625 C 918.355469 104.886719 910.855469 109.714844 903.234375 108.046875 L 866.988281 100.105469 C 859.367188 98.4375 854.511719 90.90625 856.144531 83.28125 L 865.933594 37.570312 C 867.5625 29.945312 875.0625 25.121094 882.683594 26.785156 Z M 882.683594 26.785156 " fill-opacity="0.45" fill-rule="nonzero"/></g></g></g></g><g clip-path="url(#be31d6f28e)"><g clip-path="url(#dc6428f8f5)"><g clip-path="url(#5c2c33c6d0)"><g clip-path="url(#b8b80472c4)"><path fill="#b80303" d="M 407.503906 270.945312 L 472.121094 284.925781 C 478.644531 286.339844 484.335938 290.28125 487.953125 295.890625 C 491.566406 301.503906 492.800781 308.316406 491.386719 314.84375 L 473.730469 396.300781 C 470.789062 409.886719 457.386719 418.515625 443.804688 415.578125 L 379.183594 401.597656 C 365.601562 398.660156 356.976562 385.261719 359.917969 371.679688 L 377.574219 290.21875 C 380.515625 276.636719 393.917969 268.007812 407.503906 270.945312 Z M 407.503906 270.945312 " fill-opacity="0.45" fill-rule="nonzero"/></g></g></g></g><g clip-path="url(#58e925f1b2)"><g clip-path="url(#954a414599)"><g clip-path="url(#b4bfb73421)"><g clip-path="url(#1060fec654)"><path fill="#b80303" d="M 419.511719 281.496094 L 484.128906 295.476562 C 490.652344 296.890625 496.347656 300.832031 499.960938 306.441406 C 503.578125 312.054688 504.808594 318.867188 503.398438 325.394531 L 485.738281 406.851562 C 482.796875 420.4375 469.398438 429.0625 455.8125 426.128906 L 391.195312 412.144531 C 377.609375 409.210938 368.988281 395.8125 371.929688 382.230469 L 389.585938 300.769531 C 392.527344 287.1875 405.925781 278.558594 419.511719 281.496094 Z M 419.511719 281.496094 " fill-opacity="0.45" fill-rule="nonzero"/></g></g></g></g><g clip-path="url(#93f4220815)"><g clip-path="url(#fc325c0b4b)"><g clip-path="url(#16e15b8c7b)"><g clip-path="url(#452f8f0946)"><path fill="#b80303" d="M 638.148438 285.832031 L 680.199219 263.445312 C 684.445312 261.183594 689.410156 260.703125 694.015625 262.101562 C 698.617188 263.503906 702.46875 266.675781 704.734375 270.921875 L 732.988281 323.910156 C 737.699219 332.746094 734.351562 343.722656 725.511719 348.433594 L 683.464844 370.820312 C 674.625 375.53125 663.640625 372.179688 658.929688 363.34375 L 630.675781 310.355469 C 625.964844 301.519531 629.3125 290.542969 638.148438 285.832031 Z M 638.148438 285.832031 " fill-opacity="0.45" fill-rule="nonzero"/></g></g></g></g><g clip-path="url(#77fc92cea5)"><g clip-path="url(#d6d6b5c1e4)"><g clip-path="url(#9372d37361)"><g clip-path="url(#f6ab663701)"><path fill="#b80303" d="M 649.667969 286.039062 L 691.71875 263.652344 C 695.960938 261.390625 700.929688 260.910156 705.53125 262.308594 C 710.136719 263.710938 713.988281 266.882812 716.253906 271.128906 L 744.503906 324.117188 C 749.21875 332.953125 745.871094 343.929688 737.03125 348.640625 L 694.984375 371.027344 C 686.144531 375.738281 675.160156 372.386719 670.445312 363.550781 L 642.195312 310.5625 C 637.480469 301.726562 640.832031 290.75 649.667969 286.039062 Z M 649.667969 286.039062 " fill-opacity="0.45" fill-rule="nonzero"/></g></g></g></g></svg>