<svg xmlns="http://www.w3.org/2000/svg" xmlns:xlink="http://www.w3.org/1999/xlink" width="600" zoomAndPan="magnify" viewBox="0 0 450 74.999997" height="100" preserveAspectRatio="xMidYMid meet" version="1.0"><defs><g/></defs><g fill="#737373" fill-opacity="1"><g transform="translate(19.407233, 57.271998)"><g><path d="M 44.625 -29.28125 C 44.625 -26.695312 43.925781 -24.363281 42.53125 -22.28125 C 41.144531 -20.195312 39.117188 -18.660156 36.453125 -17.671875 L 45.84375 0 L 30.625 0 L 23.140625 -15.40625 L 18.109375 -15.40625 L 18.109375 0 L 4.546875 0 L 4.546875 -42.21875 L 30.375 -42.21875 C 33.40625 -42.21875 35.992188 -41.632812 38.140625 -40.46875 C 40.285156 -39.3125 41.898438 -37.738281 42.984375 -35.75 C 44.078125 -33.769531 44.625 -31.613281 44.625 -29.28125 Z M 30.8125 -28.71875 C 30.8125 -29.820312 30.441406 -30.742188 29.703125 -31.484375 C 28.960938 -32.222656 28.0625 -32.59375 27 -32.59375 L 18.109375 -32.59375 L 18.109375 -24.796875 L 27 -24.796875 C 28.0625 -24.796875 28.960938 -25.171875 29.703125 -25.921875 C 30.441406 -26.679688 30.8125 -27.613281 30.8125 -28.71875 Z M 30.8125 -28.71875 "/></g></g></g><g fill="#737373" fill-opacity="1"><g transform="translate(67.157091, 57.271998)"><g><path d="M 4.546875 -42.21875 L 41.0625 -42.21875 L 41.0625 -32.09375 L 18.109375 -32.09375 L 18.109375 -26.265625 L 37.75 -26.265625 L 37.75 -16.578125 L 18.109375 -16.578125 L 18.109375 -10.125 L 41.484375 -10.125 L 41.484375 0 L 4.546875 0 Z M 4.546875 -42.21875 "/></g></g></g><g fill="#737373" fill-opacity="1"><g transform="translate(111.469939, 57.271998)"><g><path d="M 32.828125 0 L 31.0625 -5.953125 L 16.265625 -5.953125 L 14.484375 0 L 0.609375 0 L 16.015625 -42.21875 L 31.796875 -42.21875 L 47.203125 0 Z M 19.09375 -15.40625 L 28.234375 -15.40625 L 23.8125 -30.4375 L 23.5625 -30.4375 Z M 19.09375 -15.40625 "/></g></g></g><g fill="#737373" fill-opacity="1"><g transform="translate(159.219797, 57.271998)"><g><path d="M 22.828125 -42.21875 C 37.597656 -42.21875 44.984375 -35.179688 44.984375 -21.109375 C 44.984375 -7.035156 37.597656 0 22.828125 0 L 4.546875 0 L 4.546875 -42.21875 Z M 18.109375 -10.125 L 22.59375 -10.125 C 28.269531 -10.125 31.109375 -13.171875 31.109375 -19.265625 L 31.109375 -22.953125 C 31.109375 -29.046875 28.269531 -32.09375 22.59375 -32.09375 L 18.109375 -32.09375 Z M 18.109375 -10.125 "/></g></g></g><g fill="#737373" fill-opacity="1"><g transform="translate(206.969644, 57.271998)"><g/></g></g><g fill="#737373" fill-opacity="1"><g transform="translate(227.40757, 57.271998)"><g><path d="M 40.8125 0 L 40.8125 -15.21875 C 40.8125 -17.101562 40.882812 -19.035156 41.03125 -21.015625 C 41.175781 -23.003906 41.328125 -24.671875 41.484375 -26.015625 C 41.648438 -27.367188 41.753906 -28.226562 41.796875 -28.59375 L 41.546875 -28.59375 L 33.75 0 L 23.140625 0 L 15.28125 -28.546875 L 15.03125 -28.546875 C 15.070312 -28.171875 15.1875 -27.316406 15.375 -25.984375 C 15.5625 -24.660156 15.734375 -23.003906 15.890625 -21.015625 C 16.054688 -19.035156 16.140625 -17.101562 16.140625 -15.21875 L 16.140625 0 L 3.6875 0 L 3.6875 -42.21875 L 22.828125 -42.21875 L 29.21875 -17.859375 L 29.453125 -17.859375 L 35.78125 -42.21875 L 54.25 -42.21875 L 54.25 0 Z M 40.8125 0 "/></g></g></g><g fill="#737373" fill-opacity="1"><g transform="translate(285.345708, 57.271998)"><g><path d="M 25.53125 -42.96875 C 32.8125 -42.96875 38.4375 -41.101562 42.40625 -37.375 C 46.375 -33.65625 48.359375 -28.234375 48.359375 -21.109375 C 48.359375 -13.992188 46.375 -8.570312 42.40625 -4.84375 C 38.4375 -1.125 32.8125 0.734375 25.53125 0.734375 C 18.25 0.734375 12.632812 -1.113281 8.6875 -4.8125 C 4.738281 -8.519531 2.765625 -13.953125 2.765625 -21.109375 C 2.765625 -28.273438 4.738281 -33.707031 8.6875 -37.40625 C 12.632812 -41.113281 18.25 -42.96875 25.53125 -42.96875 Z M 25.53125 -32.828125 C 22.625 -32.828125 20.410156 -31.945312 18.890625 -30.1875 C 17.378906 -28.4375 16.625 -26.066406 16.625 -23.078125 L 16.625 -19.15625 C 16.625 -16.164062 17.378906 -13.789062 18.890625 -12.03125 C 20.410156 -10.269531 22.625 -9.390625 25.53125 -9.390625 C 28.4375 -9.390625 30.65625 -10.269531 32.1875 -12.03125 C 33.726562 -13.789062 34.5 -16.164062 34.5 -19.15625 L 34.5 -23.078125 C 34.5 -26.066406 33.726562 -28.4375 32.1875 -30.1875 C 30.65625 -31.945312 28.4375 -32.828125 25.53125 -32.828125 Z M 25.53125 -32.828125 "/></g></g></g><g fill="#737373" fill-opacity="1"><g transform="translate(336.471192, 57.271998)"><g><path d="M 44.625 -29.28125 C 44.625 -26.695312 43.925781 -24.363281 42.53125 -22.28125 C 41.144531 -20.195312 39.117188 -18.660156 36.453125 -17.671875 L 45.84375 0 L 30.625 0 L 23.140625 -15.40625 L 18.109375 -15.40625 L 18.109375 0 L 4.546875 0 L 4.546875 -42.21875 L 30.375 -42.21875 C 33.40625 -42.21875 35.992188 -41.632812 38.140625 -40.46875 C 40.285156 -39.3125 41.898438 -37.738281 42.984375 -35.75 C 44.078125 -33.769531 44.625 -31.613281 44.625 -29.28125 Z M 30.8125 -28.71875 C 30.8125 -29.820312 30.441406 -30.742188 29.703125 -31.484375 C 28.960938 -32.222656 28.0625 -32.59375 27 -32.59375 L 18.109375 -32.59375 L 18.109375 -24.796875 L 27 -24.796875 C 28.0625 -24.796875 28.960938 -25.171875 29.703125 -25.921875 C 30.441406 -26.679688 30.8125 -27.613281 30.8125 -28.71875 Z M 30.8125 -28.71875 "/></g></g></g><g fill="#737373" fill-opacity="1"><g transform="translate(384.221039, 57.271998)"><g><path d="M 4.546875 -42.21875 L 41.0625 -42.21875 L 41.0625 -32.09375 L 18.109375 -32.09375 L 18.109375 -26.265625 L 37.75 -26.265625 L 37.75 -16.578125 L 18.109375 -16.578125 L 18.109375 -10.125 L 41.484375 -10.125 L 41.484375 0 L 4.546875 0 Z M 4.546875 -42.21875 "/></g></g></g><g fill="#000000" fill-opacity="1"><g transform="translate(21.455689, 58.637635)"><g><path d="M 44.625 -29.28125 C 44.625 -26.695312 43.925781 -24.363281 42.53125 -22.28125 C 41.144531 -20.195312 39.117188 -18.660156 36.453125 -17.671875 L 45.84375 0 L 30.625 0 L 23.140625 -15.40625 L 18.109375 -15.40625 L 18.109375 0 L 4.546875 0 L 4.546875 -42.21875 L 30.375 -42.21875 C 33.40625 -42.21875 35.992188 -41.632812 38.140625 -40.46875 C 40.285156 -39.3125 41.898438 -37.738281 42.984375 -35.75 C 44.078125 -33.769531 44.625 -31.613281 44.625 -29.28125 Z M 30.8125 -28.71875 C 30.8125 -29.820312 30.441406 -30.742188 29.703125 -31.484375 C 28.960938 -32.222656 28.0625 -32.59375 27 -32.59375 L 18.109375 -32.59375 L 18.109375 -24.796875 L 27 -24.796875 C 28.0625 -24.796875 28.960938 -25.171875 29.703125 -25.921875 C 30.441406 -26.679688 30.8125 -27.613281 30.8125 -28.71875 Z M 30.8125 -28.71875 "/></g></g></g><g fill="#000000" fill-opacity="1"><g transform="translate(69.205546, 58.637635)"><g><path d="M 4.546875 -42.21875 L 41.0625 -42.21875 L 41.0625 -32.09375 L 18.109375 -32.09375 L 18.109375 -26.265625 L 37.75 -26.265625 L 37.75 -16.578125 L 18.109375 -16.578125 L 18.109375 -10.125 L 41.484375 -10.125 L 41.484375 0 L 4.546875 0 Z M 4.546875 -42.21875 "/></g></g></g><g fill="#000000" fill-opacity="1"><g transform="translate(113.518395, 58.637635)"><g><path d="M 32.828125 0 L 31.0625 -5.953125 L 16.265625 -5.953125 L 14.484375 0 L 0.609375 0 L 16.015625 -42.21875 L 31.796875 -42.21875 L 47.203125 0 Z M 19.09375 -15.40625 L 28.234375 -15.40625 L 23.8125 -30.4375 L 23.5625 -30.4375 Z M 19.09375 -15.40625 "/></g></g></g><g fill="#000000" fill-opacity="1"><g transform="translate(161.268252, 58.637635)"><g><path d="M 22.828125 -42.21875 C 37.597656 -42.21875 44.984375 -35.179688 44.984375 -21.109375 C 44.984375 -7.035156 37.597656 0 22.828125 0 L 4.546875 0 L 4.546875 -42.21875 Z M 18.109375 -10.125 L 22.59375 -10.125 C 28.269531 -10.125 31.109375 -13.171875 31.109375 -19.265625 L 31.109375 -22.953125 C 31.109375 -29.046875 28.269531 -32.09375 22.59375 -32.09375 L 18.109375 -32.09375 Z M 18.109375 -10.125 "/></g></g></g><g fill="#000000" fill-opacity="1"><g transform="translate(209.0181, 58.637635)"><g/></g></g><g fill="#000000" fill-opacity="1"><g transform="translate(229.456025, 58.637635)"><g><path d="M 40.8125 0 L 40.8125 -15.21875 C 40.8125 -17.101562 40.882812 -19.035156 41.03125 -21.015625 C 41.175781 -23.003906 41.328125 -24.671875 41.484375 -26.015625 C 41.648438 -27.367188 41.753906 -28.226562 41.796875 -28.59375 L 41.546875 -28.59375 L 33.75 0 L 23.140625 0 L 15.28125 -28.546875 L 15.03125 -28.546875 C 15.070312 -28.171875 15.1875 -27.316406 15.375 -25.984375 C 15.5625 -24.660156 15.734375 -23.003906 15.890625 -21.015625 C 16.054688 -19.035156 16.140625 -17.101562 16.140625 -15.21875 L 16.140625 0 L 3.6875 0 L 3.6875 -42.21875 L 22.828125 -42.21875 L 29.21875 -17.859375 L 29.453125 -17.859375 L 35.78125 -42.21875 L 54.25 -42.21875 L 54.25 0 Z M 40.8125 0 "/></g></g></g><g fill="#000000" fill-opacity="1"><g transform="translate(287.394164, 58.637635)"><g><path d="M 25.53125 -42.96875 C 32.8125 -42.96875 38.4375 -41.101562 42.40625 -37.375 C 46.375 -33.65625 48.359375 -28.234375 48.359375 -21.109375 C 48.359375 -13.992188 46.375 -8.570312 42.40625 -4.84375 C 38.4375 -1.125 32.8125 0.734375 25.53125 0.734375 C 18.25 0.734375 12.632812 -1.113281 8.6875 -4.8125 C 4.738281 -8.519531 2.765625 -13.953125 2.765625 -21.109375 C 2.765625 -28.273438 4.738281 -33.707031 8.6875 -37.40625 C 12.632812 -41.113281 18.25 -42.96875 25.53125 -42.96875 Z M 25.53125 -32.828125 C 22.625 -32.828125 20.410156 -31.945312 18.890625 -30.1875 C 17.378906 -28.4375 16.625 -26.066406 16.625 -23.078125 L 16.625 -19.15625 C 16.625 -16.164062 17.378906 -13.789062 18.890625 -12.03125 C 20.410156 -10.269531 22.625 -9.390625 25.53125 -9.390625 C 28.4375 -9.390625 30.65625 -10.269531 32.1875 -12.03125 C 33.726562 -13.789062 34.5 -16.164062 34.5 -19.15625 L 34.5 -23.078125 C 34.5 -26.066406 33.726562 -28.4375 32.1875 -30.1875 C 30.65625 -31.945312 28.4375 -32.828125 25.53125 -32.828125 Z M 25.53125 -32.828125 "/></g></g></g><g fill="#000000" fill-opacity="1"><g transform="translate(338.519647, 58.637635)"><g><path d="M 44.625 -29.28125 C 44.625 -26.695312 43.925781 -24.363281 42.53125 -22.28125 C 41.144531 -20.195312 39.117188 -18.660156 36.453125 -17.671875 L 45.84375 0 L 30.625 0 L 23.140625 -15.40625 L 18.109375 -15.40625 L 18.109375 0 L 4.546875 0 L 4.546875 -42.21875 L 30.375 -42.21875 C 33.40625 -42.21875 35.992188 -41.632812 38.140625 -40.46875 C 40.285156 -39.3125 41.898438 -37.738281 42.984375 -35.75 C 44.078125 -33.769531 44.625 -31.613281 44.625 -29.28125 Z M 30.8125 -28.71875 C 30.8125 -29.820312 30.441406 -30.742188 29.703125 -31.484375 C 28.960938 -32.222656 28.0625 -32.59375 27 -32.59375 L 18.109375 -32.59375 L 18.109375 -24.796875 L 27 -24.796875 C 28.0625 -24.796875 28.960938 -25.171875 29.703125 -25.921875 C 30.441406 -26.679688 30.8125 -27.613281 30.8125 -28.71875 Z M 30.8125 -28.71875 "/></g></g></g><g fill="#000000" fill-opacity="1"><g transform="translate(386.269495, 58.637635)"><g><path d="M 4.546875 -42.21875 L 41.0625 -42.21875 L 41.0625 -32.09375 L 18.109375 -32.09375 L 18.109375 -26.265625 L 37.75 -26.265625 L 37.75 -16.578125 L 18.109375 -16.578125 L 18.109375 -10.125 L 41.484375 -10.125 L 41.484375 0 L 4.546875 0 Z M 4.546875 -42.21875 "/></g></g></g></svg>