<svg xmlns="http://www.w3.org/2000/svg" xmlns:xlink="http://www.w3.org/1999/xlink" width="200" zoomAndPan="magnify" viewBox="0 0 150 30.000001" height="40" preserveAspectRatio="xMidYMid meet" version="1.0"><defs><g/><clipPath id="7be0a5b8a1"><path d="M 2.417969 0 L 147.578125 0 L 147.578125 29.03125 L 2.417969 29.03125 Z M 2.417969 0 " clip-rule="nonzero"/></clipPath></defs><g clip-path="url(#7be0a5b8a1)"><path fill="#ffffff" d="M 2.417969 0 L 147.582031 0 L 147.582031 29.03125 L 2.417969 29.03125 Z M 2.417969 0 " fill-opacity="1" fill-rule="nonzero"/><path fill="#ffffff" d="M 2.417969 0 L 147.582031 0 L 147.582031 29.03125 L 2.417969 29.03125 Z M 2.417969 0 " fill-opacity="1" fill-rule="nonzero"/></g><g fill="#737373" fill-opacity="1"><g transform="translate(2.517008, 21.486872)"><g><path d="M 15.734375 -10.328125 C 15.734375 -9.410156 15.488281 -8.582031 15 -7.84375 C 14.507812 -7.113281 13.796875 -6.578125 12.859375 -6.234375 L 16.171875 0 L 10.796875 0 L 8.15625 -5.4375 L 6.390625 -5.4375 L 6.390625 0 L 1.59375 0 L 1.59375 -14.890625 L 10.71875 -14.890625 C 11.78125 -14.890625 12.6875 -14.679688 13.4375 -14.265625 C 14.195312 -13.859375 14.769531 -13.304688 15.15625 -12.609375 C 15.539062 -11.910156 15.734375 -11.148438 15.734375 -10.328125 Z M 10.859375 -10.125 C 10.859375 -10.519531 10.726562 -10.84375 10.46875 -11.09375 C 10.207031 -11.351562 9.890625 -11.484375 9.515625 -11.484375 L 6.390625 -11.484375 L 6.390625 -8.75 L 9.515625 -8.75 C 9.890625 -8.75 10.207031 -8.878906 10.46875 -9.140625 C 10.726562 -9.410156 10.859375 -9.738281 10.859375 -10.125 Z M 10.859375 -10.125 "/></g></g></g><g fill="#737373" fill-opacity="1"><g transform="translate(19.351514, 21.486872)"><g><path d="M 1.59375 -14.890625 L 14.484375 -14.890625 L 14.484375 -11.3125 L 6.390625 -11.3125 L 6.390625 -9.265625 L 13.3125 -9.265625 L 13.3125 -5.84375 L 6.390625 -5.84375 L 6.390625 -3.578125 L 14.625 -3.578125 L 14.625 0 L 1.59375 0 Z M 1.59375 -14.890625 "/></g></g></g><g fill="#737373" fill-opacity="1"><g transform="translate(34.974282, 21.486872)"><g><path d="M 11.578125 0 L 10.953125 -2.09375 L 5.734375 -2.09375 L 5.109375 0 L 0.21875 0 L 5.640625 -14.890625 L 11.203125 -14.890625 L 16.640625 0 Z M 6.734375 -5.4375 L 9.953125 -5.4375 L 8.390625 -10.734375 L 8.3125 -10.734375 Z M 6.734375 -5.4375 "/></g></g></g><g fill="#737373" fill-opacity="1"><g transform="translate(51.808788, 21.486872)"><g><path d="M 8.046875 -14.890625 C 13.253906 -14.890625 15.859375 -12.40625 15.859375 -7.4375 C 15.859375 -2.476562 13.253906 0 8.046875 0 L 1.59375 0 L 1.59375 -14.890625 Z M 6.390625 -3.578125 L 7.96875 -3.578125 C 9.96875 -3.578125 10.96875 -4.648438 10.96875 -6.796875 L 10.96875 -8.09375 C 10.96875 -10.238281 9.96875 -11.3125 7.96875 -11.3125 L 6.390625 -11.3125 Z M 6.390625 -3.578125 "/></g></g></g><g fill="#737373" fill-opacity="1"><g transform="translate(68.64329, 21.486872)"><g/></g></g><g fill="#737373" fill-opacity="1"><g transform="translate(75.848807, 21.486872)"><g><path d="M 14.390625 0 L 14.390625 -5.359375 C 14.390625 -6.023438 14.414062 -6.707031 14.46875 -7.40625 C 14.519531 -8.113281 14.570312 -8.703125 14.625 -9.171875 C 14.6875 -9.648438 14.722656 -9.953125 14.734375 -10.078125 L 14.65625 -10.078125 L 11.90625 0 L 8.15625 0 L 5.390625 -10.0625 L 5.296875 -10.0625 C 5.316406 -9.9375 5.359375 -9.640625 5.421875 -9.171875 C 5.484375 -8.703125 5.539062 -8.113281 5.59375 -7.40625 C 5.65625 -6.707031 5.6875 -6.023438 5.6875 -5.359375 L 5.6875 0 L 1.296875 0 L 1.296875 -14.890625 L 8.046875 -14.890625 L 10.296875 -6.296875 L 10.390625 -6.296875 L 12.609375 -14.890625 L 19.125 -14.890625 L 19.125 0 Z M 14.390625 0 "/></g></g></g><g fill="#737373" fill-opacity="1"><g transform="translate(96.275254, 21.486872)"><g><path d="M 9 -15.140625 C 11.570312 -15.140625 13.554688 -14.484375 14.953125 -13.171875 C 16.347656 -11.859375 17.046875 -9.945312 17.046875 -7.4375 C 17.046875 -4.925781 16.347656 -3.015625 14.953125 -1.703125 C 13.554688 -0.390625 11.570312 0.265625 9 0.265625 C 6.4375 0.265625 4.457031 -0.382812 3.0625 -1.6875 C 1.664062 -3 0.96875 -4.914062 0.96875 -7.4375 C 0.96875 -9.96875 1.664062 -11.882812 3.0625 -13.1875 C 4.457031 -14.488281 6.4375 -15.140625 9 -15.140625 Z M 9 -11.578125 C 7.976562 -11.578125 7.195312 -11.265625 6.65625 -10.640625 C 6.125 -10.023438 5.859375 -9.191406 5.859375 -8.140625 L 5.859375 -6.75 C 5.859375 -5.695312 6.125 -4.859375 6.65625 -4.234375 C 7.195312 -3.617188 7.976562 -3.3125 9 -3.3125 C 10.019531 -3.3125 10.800781 -3.617188 11.34375 -4.234375 C 11.882812 -4.859375 12.15625 -5.695312 12.15625 -6.75 L 12.15625 -8.140625 C 12.15625 -9.191406 11.882812 -10.023438 11.34375 -10.640625 C 10.800781 -11.265625 10.019531 -11.578125 9 -11.578125 Z M 9 -11.578125 "/></g></g></g><g fill="#737373" fill-opacity="1"><g transform="translate(114.299858, 21.486872)"><g><path d="M 15.734375 -10.328125 C 15.734375 -9.410156 15.488281 -8.582031 15 -7.84375 C 14.507812 -7.113281 13.796875 -6.578125 12.859375 -6.234375 L 16.171875 0 L 10.796875 0 L 8.15625 -5.4375 L 6.390625 -5.4375 L 6.390625 0 L 1.59375 0 L 1.59375 -14.890625 L 10.71875 -14.890625 C 11.78125 -14.890625 12.6875 -14.679688 13.4375 -14.265625 C 14.195312 -13.859375 14.769531 -13.304688 15.15625 -12.609375 C 15.539062 -11.910156 15.734375 -11.148438 15.734375 -10.328125 Z M 10.859375 -10.125 C 10.859375 -10.519531 10.726562 -10.84375 10.46875 -11.09375 C 10.207031 -11.351562 9.890625 -11.484375 9.515625 -11.484375 L 6.390625 -11.484375 L 6.390625 -8.75 L 9.515625 -8.75 C 9.890625 -8.75 10.207031 -8.878906 10.46875 -9.140625 C 10.726562 -9.410156 10.859375 -9.738281 10.859375 -10.125 Z M 10.859375 -10.125 "/></g></g></g><g fill="#737373" fill-opacity="1"><g transform="translate(131.134361, 21.486872)"><g><path d="M 1.59375 -14.890625 L 14.484375 -14.890625 L 14.484375 -11.3125 L 6.390625 -11.3125 L 6.390625 -9.265625 L 13.3125 -9.265625 L 13.3125 -5.84375 L 6.390625 -5.84375 L 6.390625 -3.578125 L 14.625 -3.578125 L 14.625 0 L 1.59375 0 Z M 1.59375 -14.890625 "/></g></g></g><g fill="#000000" fill-opacity="1"><g transform="translate(3.239203, 21.968336)"><g><path d="M 15.734375 -10.328125 C 15.734375 -9.410156 15.488281 -8.582031 15 -7.84375 C 14.507812 -7.113281 13.796875 -6.578125 12.859375 -6.234375 L 16.171875 0 L 10.796875 0 L 8.15625 -5.4375 L 6.390625 -5.4375 L 6.390625 0 L 1.59375 0 L 1.59375 -14.890625 L 10.71875 -14.890625 C 11.78125 -14.890625 12.6875 -14.679688 13.4375 -14.265625 C 14.195312 -13.859375 14.769531 -13.304688 15.15625 -12.609375 C 15.539062 -11.910156 15.734375 -11.148438 15.734375 -10.328125 Z M 10.859375 -10.125 C 10.859375 -10.519531 10.726562 -10.84375 10.46875 -11.09375 C 10.207031 -11.351562 9.890625 -11.484375 9.515625 -11.484375 L 6.390625 -11.484375 L 6.390625 -8.75 L 9.515625 -8.75 C 9.890625 -8.75 10.207031 -8.878906 10.46875 -9.140625 C 10.726562 -9.410156 10.859375 -9.738281 10.859375 -10.125 Z M 10.859375 -10.125 "/></g></g></g><g fill="#000000" fill-opacity="1"><g transform="translate(20.073709, 21.968336)"><g><path d="M 1.59375 -14.890625 L 14.484375 -14.890625 L 14.484375 -11.3125 L 6.390625 -11.3125 L 6.390625 -9.265625 L 13.3125 -9.265625 L 13.3125 -5.84375 L 6.390625 -5.84375 L 6.390625 -3.578125 L 14.625 -3.578125 L 14.625 0 L 1.59375 0 Z M 1.59375 -14.890625 "/></g></g></g><g fill="#000000" fill-opacity="1"><g transform="translate(35.696477, 21.968336)"><g><path d="M 11.578125 0 L 10.953125 -2.09375 L 5.734375 -2.09375 L 5.109375 0 L 0.21875 0 L 5.640625 -14.890625 L 11.203125 -14.890625 L 16.640625 0 Z M 6.734375 -5.4375 L 9.953125 -5.4375 L 8.390625 -10.734375 L 8.3125 -10.734375 Z M 6.734375 -5.4375 "/></g></g></g><g fill="#000000" fill-opacity="1"><g transform="translate(52.530983, 21.968336)"><g><path d="M 8.046875 -14.890625 C 13.253906 -14.890625 15.859375 -12.40625 15.859375 -7.4375 C 15.859375 -2.476562 13.253906 0 8.046875 0 L 1.59375 0 L 1.59375 -14.890625 Z M 6.390625 -3.578125 L 7.96875 -3.578125 C 9.96875 -3.578125 10.96875 -4.648438 10.96875 -6.796875 L 10.96875 -8.09375 C 10.96875 -10.238281 9.96875 -11.3125 7.96875 -11.3125 L 6.390625 -11.3125 Z M 6.390625 -3.578125 "/></g></g></g><g fill="#000000" fill-opacity="1"><g transform="translate(69.365486, 21.968336)"><g/></g></g><g fill="#000000" fill-opacity="1"><g transform="translate(76.571002, 21.968336)"><g><path d="M 14.390625 0 L 14.390625 -5.359375 C 14.390625 -6.023438 14.414062 -6.707031 14.46875 -7.40625 C 14.519531 -8.113281 14.570312 -8.703125 14.625 -9.171875 C 14.6875 -9.648438 14.722656 -9.953125 14.734375 -10.078125 L 14.65625 -10.078125 L 11.90625 0 L 8.15625 0 L 5.390625 -10.0625 L 5.296875 -10.0625 C 5.316406 -9.9375 5.359375 -9.640625 5.421875 -9.171875 C 5.484375 -8.703125 5.539062 -8.113281 5.59375 -7.40625 C 5.65625 -6.707031 5.6875 -6.023438 5.6875 -5.359375 L 5.6875 0 L 1.296875 0 L 1.296875 -14.890625 L 8.046875 -14.890625 L 10.296875 -6.296875 L 10.390625 -6.296875 L 12.609375 -14.890625 L 19.125 -14.890625 L 19.125 0 Z M 14.390625 0 "/></g></g></g><g fill="#000000" fill-opacity="1"><g transform="translate(96.99745, 21.968336)"><g><path d="M 9 -15.140625 C 11.570312 -15.140625 13.554688 -14.484375 14.953125 -13.171875 C 16.347656 -11.859375 17.046875 -9.945312 17.046875 -7.4375 C 17.046875 -4.925781 16.347656 -3.015625 14.953125 -1.703125 C 13.554688 -0.390625 11.570312 0.265625 9 0.265625 C 6.4375 0.265625 4.457031 -0.382812 3.0625 -1.6875 C 1.664062 -3 0.96875 -4.914062 0.96875 -7.4375 C 0.96875 -9.96875 1.664062 -11.882812 3.0625 -13.1875 C 4.457031 -14.488281 6.4375 -15.140625 9 -15.140625 Z M 9 -11.578125 C 7.976562 -11.578125 7.195312 -11.265625 6.65625 -10.640625 C 6.125 -10.023438 5.859375 -9.191406 5.859375 -8.140625 L 5.859375 -6.75 C 5.859375 -5.695312 6.125 -4.859375 6.65625 -4.234375 C 7.195312 -3.617188 7.976562 -3.3125 9 -3.3125 C 10.019531 -3.3125 10.800781 -3.617188 11.34375 -4.234375 C 11.882812 -4.859375 12.15625 -5.695312 12.15625 -6.75 L 12.15625 -8.140625 C 12.15625 -9.191406 11.882812 -10.023438 11.34375 -10.640625 C 10.800781 -11.265625 10.019531 -11.578125 9 -11.578125 Z M 9 -11.578125 "/></g></g></g><g fill="#000000" fill-opacity="1"><g transform="translate(115.022054, 21.968336)"><g><path d="M 15.734375 -10.328125 C 15.734375 -9.410156 15.488281 -8.582031 15 -7.84375 C 14.507812 -7.113281 13.796875 -6.578125 12.859375 -6.234375 L 16.171875 0 L 10.796875 0 L 8.15625 -5.4375 L 6.390625 -5.4375 L 6.390625 0 L 1.59375 0 L 1.59375 -14.890625 L 10.71875 -14.890625 C 11.78125 -14.890625 12.6875 -14.679688 13.4375 -14.265625 C 14.195312 -13.859375 14.769531 -13.304688 15.15625 -12.609375 C 15.539062 -11.910156 15.734375 -11.148438 15.734375 -10.328125 Z M 10.859375 -10.125 C 10.859375 -10.519531 10.726562 -10.84375 10.46875 -11.09375 C 10.207031 -11.351562 9.890625 -11.484375 9.515625 -11.484375 L 6.390625 -11.484375 L 6.390625 -8.75 L 9.515625 -8.75 C 9.890625 -8.75 10.207031 -8.878906 10.46875 -9.140625 C 10.726562 -9.410156 10.859375 -9.738281 10.859375 -10.125 Z M 10.859375 -10.125 "/></g></g></g><g fill="#000000" fill-opacity="1"><g transform="translate(131.856556, 21.968336)"><g><path d="M 1.59375 -14.890625 L 14.484375 -14.890625 L 14.484375 -11.3125 L 6.390625 -11.3125 L 6.390625 -9.265625 L 13.3125 -9.265625 L 13.3125 -5.84375 L 6.390625 -5.84375 L 6.390625 -3.578125 L 14.625 -3.578125 L 14.625 0 L 1.59375 0 Z M 1.59375 -14.890625 "/></g></g></g></svg>